<svg width="264" height="37" viewBox="0 0 264 37" fill="none" xmlns="http://www.w3.org/2000/svg">
<path d="M10.32 36.528C8.176 36.528 6.304 36.144 4.704 35.376C3.136 34.576 1.792 33.472 0.672 32.064L5.712 27.216C6.288 28.016 6.96 28.624 7.728 29.04C8.528 29.456 9.424 29.664 10.416 29.664C11.376 29.664 12.208 29.472 12.912 29.088C13.616 28.672 14.176 28.096 14.592 27.36C15.008 26.592 15.216 25.648 15.216 24.528V2.112H22.8V24.096C22.8 26.624 22.288 28.816 21.264 30.672C20.24 32.528 18.8 33.968 16.944 34.992C15.088 36.016 12.88 36.528 10.32 36.528ZM39.6589 36.528C37.1309 36.528 34.8749 36.016 32.8909 34.992C30.9389 33.936 29.4029 32.48 28.2829 30.624C27.1629 28.768 26.6029 26.672 26.6029 24.336C26.6029 22 27.1469 19.92 28.2349 18.096C29.3549 16.24 30.8589 14.784 32.7469 13.728C34.6349 12.672 36.7629 12.144 39.1309 12.144C41.4349 12.144 43.4669 12.64 45.2269 13.632C46.9869 14.624 48.3629 16 49.3549 17.76C50.3789 19.52 50.8909 21.536 50.8909 23.808C50.8909 24.224 50.8589 24.672 50.7949 25.152C50.7629 25.6 50.6829 26.128 50.5549 26.736L30.4429 26.784V21.744L47.4349 21.696L44.2669 23.808C44.2349 22.464 44.0269 21.36 43.6429 20.496C43.2589 19.6 42.6829 18.928 41.9149 18.48C41.1789 18 40.2669 17.76 39.1789 17.76C38.0269 17.76 37.0189 18.032 36.1549 18.576C35.3229 19.088 34.6669 19.824 34.1869 20.784C33.7389 21.744 33.5149 22.912 33.5149 24.288C33.5149 25.664 33.7549 26.848 34.2349 27.84C34.7469 28.8 35.4509 29.552 36.3469 30.096C37.2749 30.608 38.3629 30.864 39.6109 30.864C40.7629 30.864 41.8029 30.672 42.7309 30.288C43.6589 29.872 44.4749 29.264 45.1789 28.464L49.2109 32.496C48.0589 33.84 46.6669 34.848 45.0349 35.52C43.4029 36.192 41.6109 36.528 39.6589 36.528ZM64.1797 36.48C62.0358 36.48 60.1158 35.952 58.4198 34.896C56.7558 33.84 55.4278 32.4 54.4358 30.576C53.4758 28.752 52.9958 26.672 52.9958 24.336C52.9958 22 53.4758 19.92 54.4358 18.096C55.4278 16.272 56.7558 14.832 58.4198 13.776C60.1158 12.72 62.0358 12.192 64.1797 12.192C65.7478 12.192 67.1558 12.496 68.4038 13.104C69.6838 13.712 70.7238 14.56 71.5238 15.648C72.3238 16.704 72.7718 17.92 72.8678 19.296V29.376C72.7718 30.752 72.3238 31.984 71.5238 33.072C70.7558 34.128 69.7318 34.96 68.4518 35.568C67.1718 36.176 65.7478 36.48 64.1797 36.48ZM65.6678 29.856C67.2358 29.856 68.4998 29.344 69.4598 28.32C70.4198 27.264 70.8998 25.936 70.8998 24.336C70.8998 23.248 70.6758 22.288 70.2278 21.456C69.8118 20.624 69.2038 19.984 68.4038 19.536C67.6358 19.056 66.7398 18.816 65.7158 18.816C64.6918 18.816 63.7798 19.056 62.9798 19.536C62.2118 19.984 61.5878 20.624 61.1078 21.456C60.6598 22.288 60.4358 23.248 60.4358 24.336C60.4358 25.392 60.6598 26.336 61.1078 27.168C61.5558 28 62.1798 28.656 62.9798 29.136C63.7798 29.616 64.6758 29.856 65.6678 29.856ZM70.6118 36V29.712L71.7158 24.048L70.6118 18.384V12.672H77.8118V36H70.6118ZM98.3906 36V22.704C98.3906 21.488 98.0066 20.512 97.2386 19.776C96.5026 19.008 95.5586 18.624 94.4066 18.624C93.6066 18.624 92.9026 18.8 92.2946 19.152C91.6866 19.472 91.2066 19.952 90.8546 20.592C90.5026 21.2 90.3266 21.904 90.3266 22.704L87.4946 21.312C87.4946 19.488 87.8946 17.888 88.6946 16.512C89.4946 15.136 90.5986 14.08 92.0066 13.344C93.4466 12.576 95.0626 12.192 96.8546 12.192C98.5826 12.192 100.103 12.608 101.415 13.44C102.759 14.24 103.815 15.312 104.583 16.656C105.351 18 105.735 19.472 105.735 21.072V36H98.3906ZM82.9826 36V12.672H90.3266V36H82.9826ZM130.44 36.528C127.656 36.528 125.256 36.08 123.24 35.184C121.256 34.256 119.432 32.864 117.768 31.008L122.664 26.16C123.752 27.408 124.952 28.384 126.264 29.088C127.608 29.76 129.16 30.096 130.92 30.096C132.52 30.096 133.752 29.808 134.616 29.232C135.512 28.656 135.96 27.856 135.96 26.832C135.96 25.904 135.672 25.152 135.096 24.576C134.52 24 133.752 23.504 132.792 23.088C131.864 22.672 130.824 22.272 129.672 21.888C128.552 21.504 127.432 21.072 126.312 20.592C125.192 20.08 124.152 19.456 123.192 18.72C122.264 17.952 121.512 17.008 120.936 15.888C120.36 14.736 120.072 13.296 120.072 11.568C120.072 9.488 120.568 7.696 121.56 6.192C122.584 4.688 123.992 3.552 125.784 2.784C127.576 1.984 129.64 1.584 131.976 1.584C134.344 1.584 136.504 2 138.456 2.832C140.44 3.664 142.072 4.8 143.352 6.24L138.456 11.088C137.432 10.032 136.392 9.248 135.336 8.736C134.312 8.224 133.144 7.968 131.832 7.968C130.52 7.968 129.48 8.224 128.712 8.736C127.944 9.216 127.56 9.92 127.56 10.848C127.56 11.712 127.848 12.416 128.424 12.96C129 13.472 129.752 13.92 130.68 14.304C131.64 14.688 132.68 15.072 133.8 15.456C134.952 15.84 136.088 16.288 137.208 16.8C138.328 17.312 139.352 17.968 140.28 18.768C141.24 19.536 142.008 20.528 142.584 21.744C143.16 22.928 143.448 24.4 143.448 26.16C143.448 29.392 142.296 31.936 139.992 33.792C137.688 35.616 134.504 36.528 130.44 36.528ZM150.888 36V3.024H158.232V36H150.888ZM145.608 18.912V12.672H163.512V18.912H145.608ZM177.799 36.528C175.272 36.528 173.016 36.016 171.032 34.992C169.08 33.936 167.544 32.48 166.424 30.624C165.304 28.768 164.744 26.672 164.744 24.336C164.744 22 165.288 19.92 166.376 18.096C167.496 16.24 169 14.784 170.888 13.728C172.776 12.672 174.904 12.144 177.272 12.144C179.576 12.144 181.608 12.64 183.368 13.632C185.128 14.624 186.504 16 187.496 17.76C188.52 19.52 189.031 21.536 189.031 23.808C189.031 24.224 189 24.672 188.936 25.152C188.904 25.6 188.824 26.128 188.696 26.736L168.584 26.784V21.744L185.576 21.696L182.408 23.808C182.376 22.464 182.168 21.36 181.784 20.496C181.4 19.6 180.824 18.928 180.056 18.48C179.32 18 178.408 17.76 177.32 17.76C176.168 17.76 175.16 18.032 174.296 18.576C173.464 19.088 172.808 19.824 172.328 20.784C171.88 21.744 171.656 22.912 171.656 24.288C171.656 25.664 171.896 26.848 172.376 27.84C172.888 28.8 173.592 29.552 174.488 30.096C175.416 30.608 176.504 30.864 177.752 30.864C178.904 30.864 179.944 30.672 180.872 30.288C181.8 29.872 182.616 29.264 183.32 28.464L187.352 32.496C186.2 33.84 184.808 34.848 183.176 35.52C181.544 36.192 179.752 36.528 177.799 36.528ZM195.037 36V10.656C195.037 8.768 195.453 7.072 196.285 5.568C197.149 4.032 198.349 2.832 199.885 1.968C201.421 1.072 203.245 0.623998 205.357 0.623998C206.957 0.623998 208.349 0.895998 209.533 1.44C210.749 1.952 211.805 2.672 212.701 3.6L208.093 8.208C207.773 7.888 207.405 7.648 206.989 7.488C206.605 7.296 206.141 7.2 205.597 7.2C204.605 7.2 203.821 7.488 203.245 8.064C202.669 8.64 202.381 9.424 202.381 10.416V36H195.037ZM189.901 18.912V12.672H209.101V18.912H189.901ZM221.68 36.48C219.536 36.48 217.616 35.952 215.92 34.896C214.256 33.84 212.928 32.4 211.936 30.576C210.976 28.752 210.496 26.672 210.496 24.336C210.496 22 210.976 19.92 211.936 18.096C212.928 16.272 214.256 14.832 215.92 13.776C217.616 12.72 219.536 12.192 221.68 12.192C223.248 12.192 224.656 12.496 225.904 13.104C227.184 13.712 228.224 14.56 229.024 15.648C229.824 16.704 230.272 17.92 230.368 19.296V29.376C230.272 30.752 229.824 31.984 229.024 33.072C228.256 34.128 227.232 34.96 225.952 35.568C224.672 36.176 223.248 36.48 221.68 36.48ZM223.168 29.856C224.736 29.856 226 29.344 226.96 28.32C227.92 27.264 228.4 25.936 228.4 24.336C228.4 23.248 228.176 22.288 227.728 21.456C227.312 20.624 226.704 19.984 225.904 19.536C225.136 19.056 224.24 18.816 223.216 18.816C222.192 18.816 221.28 19.056 220.48 19.536C219.712 19.984 219.088 20.624 218.608 21.456C218.16 22.288 217.936 23.248 217.936 24.336C217.936 25.392 218.16 26.336 218.608 27.168C219.056 28 219.68 28.656 220.48 29.136C221.28 29.616 222.176 29.856 223.168 29.856ZM228.112 36V29.712L229.216 24.048L228.112 18.384V12.672H235.312V36H228.112ZM255.891 36V22.704C255.891 21.488 255.507 20.512 254.739 19.776C254.003 19.008 253.059 18.624 251.907 18.624C251.107 18.624 250.403 18.8 249.795 19.152C249.187 19.472 248.707 19.952 248.355 20.592C248.003 21.2 247.827 21.904 247.827 22.704L244.995 21.312C244.995 19.488 245.395 17.888 246.195 16.512C246.995 15.136 248.099 14.08 249.507 13.344C250.947 12.576 252.563 12.192 254.355 12.192C256.083 12.192 257.603 12.608 258.915 13.44C260.259 14.24 261.315 15.312 262.083 16.656C262.851 18 263.235 19.472 263.235 21.072V36H255.891ZM240.483 36V12.672H247.827V36H240.483Z" fill="#141414"/>
</svg>
